<svg width="27" height="27" viewBox="0 0 27 27" fill="none" xmlns="http://www.w3.org/2000/svg">
<path fill-rule="evenodd" clip-rule="evenodd" d="M21.7872 2.0742H20.7801V1.05469C20.7801 0.472184 20.3081 0 19.7258 0C19.1436 0 18.6716 0.472184 18.6716 1.05469V2.0742H8.32832V1.05469C8.32832 0.472184 7.85635 0 7.2741 0C6.69186 0 6.21989 0.472184 6.21989 1.05469V2.0742H5.21284C2.33847 2.0742 0 4.41371 0 7.28931V21.7848C0 24.6605 2.33847 27 5.21284 27H21.7872C24.6615 27 27 24.6605 27 21.7848V7.28931C27 4.41371 24.6615 2.0742 21.7872 2.0742ZM5.21284 4.18358H6.21989V6.24022C6.21989 6.82272 6.69186 7.2949 7.2741 7.2949C7.85635 7.2949 8.32832 6.82272 8.32832 6.24022V4.18358H18.6717V6.24022C18.6717 6.82272 19.1437 7.2949 19.7259 7.2949C20.3081 7.2949 20.7801 6.82272 20.7801 6.24022V4.18358H21.7872C23.4989 4.18358 24.8916 5.57682 24.8916 7.28931V8.29686H2.10844V7.28931C2.10844 5.57682 3.50106 4.18358 5.21284 4.18358ZM5.21284 24.8906H21.7872C23.4989 24.8906 24.8916 23.4974 24.8916 21.7848V10.4062H2.10844V21.7848C2.10844 23.4974 3.50106 24.8906 5.21284 24.8906ZM9.36499 14.5547C9.36499 15.1372 8.89301 15.6094 8.31077 15.6094H6.23749C5.65525 15.6094 5.18327 15.1372 5.18327 14.5547C5.18327 13.9722 5.65525 13.5 6.23749 13.5H8.31077C8.89296 13.5 9.36499 13.9722 9.36499 14.5547ZM20.7626 15.6094C21.3448 15.6094 21.8168 15.1372 21.8168 14.5547C21.8168 13.9722 21.3448 13.5 20.7626 13.5H18.6893C18.107 13.5 17.6351 13.9722 17.6351 14.5547C17.6351 15.1372 18.107 15.6094 18.6893 15.6094H20.7626ZM15.5849 14.5547C15.5849 15.1372 15.1129 15.6094 14.5307 15.6094H12.4574C11.8751 15.6094 11.4032 15.1372 11.4032 14.5547C11.4032 13.9722 11.8751 13.5 12.4574 13.5H14.5307C15.1128 13.5 15.5849 13.9722 15.5849 14.5547ZM8.31077 21.832C8.89301 21.832 9.36499 21.3598 9.36499 20.7773C9.36499 20.1948 8.89296 19.7227 8.31077 19.7227H6.23749C5.65525 19.7227 5.18327 20.1948 5.18327 20.7773C5.18327 21.3598 5.65525 21.832 6.23749 21.832H8.31077ZM21.8168 20.7773C21.8168 21.3598 21.3448 21.832 20.7626 21.832H18.6893C18.107 21.832 17.6351 21.3598 17.6351 20.7773C17.6351 20.1948 18.107 19.7227 18.6893 19.7227H20.7626C21.3448 19.7227 21.8168 20.1948 21.8168 20.7773ZM14.5307 21.832C15.1129 21.832 15.5849 21.3598 15.5849 20.7773C15.5849 20.1948 15.1128 19.7227 14.5307 19.7227H12.4574C11.8751 19.7227 11.4032 20.1948 11.4032 20.7773C11.4032 21.3598 11.8751 21.832 12.4574 21.832H14.5307Z" fill="#51BFAD"/>
</svg>
