<svg width="519" height="435" viewBox="0 0 519 435" fill="none" xmlns="http://www.w3.org/2000/svg">
<ellipse opacity="0.670033" rx="45.1884" ry="45.2186" transform="matrix(0 1 1 0 22.2186 410.312)" fill="#51BFAD"/>
<ellipse opacity="0.216696" rx="45.1884" ry="45.2186" transform="matrix(0 1 1 0 112.656 410.312)" fill="#303A6C"/>
<ellipse opacity="0.250769" rx="45.1884" ry="45.2186" transform="matrix(0 1 1 0 203.093 410.312)" fill="white"/>
<ellipse opacity="0.876404" rx="45.1884" ry="45.2186" transform="matrix(0 1 1 0 293.531 410.312)" fill="#51BFAD"/>
<ellipse opacity="0.30027" rx="45.1884" ry="45.2186" transform="matrix(0 1 1 0 296.025 319.935)" fill="#51BFAD"/>
<ellipse opacity="0.278141" rx="45.1884" ry="45.2186" transform="matrix(0 1 1 0 204.341 319.935)" fill="#303A6C"/>
<ellipse opacity="0.454811" rx="45.1884" ry="45.2186" transform="matrix(0 1 1 0 113.903 319.935)" fill="white"/>
<ellipse opacity="0.14191" rx="45.1884" ry="45.2186" transform="matrix(0 1 1 0 23.466 319.935)" fill="white"/>
<ellipse opacity="0.725975" rx="45.1884" ry="45.2186" transform="matrix(0 1 1 0 112.656 229.558)" fill="#51BFAD"/>
<ellipse opacity="0.252914" rx="45.1884" ry="45.2186" transform="matrix(0 1 1 0 22.2186 136.688)" fill="#303A6C"/>
<ellipse opacity="0.404909" rx="45.1884" ry="45.2186" transform="matrix(0 1 1 0 22.2186 45.6884)" fill="#51BFAD"/>
<ellipse opacity="0.611489" rx="45.1884" ry="45.2186" transform="matrix(0 1 1 0 22.2186 228.312)" fill="#51BFAD"/>
<ellipse opacity="0.388346" rx="45.1884" ry="45.2186" transform="matrix(0 1 1 0 383.344 410.312)" fill="#303A6C"/>
<ellipse opacity="0.440653" rx="45.1884" ry="45.2186" transform="matrix(0 1 1 0 473.781 410.312)" fill="#51BFAD"/>
</svg>
