<svg width="520" height="433" viewBox="0 0 520 433" fill="none" xmlns="http://www.w3.org/2000/svg">
<g opacity="0.370747">
<ellipse opacity="0.647281" rx="45.1884" ry="45.2186" transform="matrix(0 -1 -1 0 496.781 22.6884)" fill="#51BFAD"/>
<ellipse opacity="0.216696" rx="45.1884" ry="45.2186" transform="matrix(0 -1 -1 0 406.344 22.6884)" fill="#303A6C"/>
<ellipse opacity="0.360808" rx="45.1884" ry="45.2186" transform="matrix(0 -1 -1 0 315.907 22.6884)" fill="white"/>
<ellipse opacity="0.668262" rx="45.1884" ry="45.2186" transform="matrix(0 -1 -1 0 225.469 22.6884)" fill="#51BFAD"/>
<ellipse opacity="0.30027" rx="45.1884" ry="45.2186" transform="matrix(0 -1 -1 0 222.975 113.065)" fill="#51BFAD"/>
<ellipse opacity="0.278141" rx="45.1884" ry="45.2186" transform="matrix(0 -1 -1 0 314.659 113.065)" fill="#303A6C"/>
<ellipse opacity="0.287913" rx="45.1884" ry="45.2186" transform="matrix(0 -1 -1 0 405.097 113.065)" fill="white"/>
<ellipse opacity="0.14191" rx="45.1884" ry="45.2186" transform="matrix(0 -1 -1 0 495.534 113.065)" fill="white"/>
<ellipse opacity="0.276939" rx="45.1884" ry="45.2186" transform="matrix(0 -1 -1 0 406.344 203.442)" fill="#51BFAD"/>
<ellipse opacity="0.164777" rx="45.1884" ry="45.2186" transform="matrix(0 -1 -1 0 496.781 296.312)" fill="#303A6C"/>
<ellipse opacity="0.404909" rx="45.1884" ry="45.2186" transform="matrix(0 -1 -1 0 496.781 387.312)" fill="#51BFAD"/>
<ellipse opacity="0.611489" rx="45.1884" ry="45.2186" transform="matrix(0 -1 -1 0 496.781 204.688)" fill="#51BFAD"/>
<ellipse opacity="0.279641" rx="45.1884" ry="45.2186" transform="matrix(0 -1 -1 0 135.656 22.6884)" fill="#303A6C"/>
<ellipse opacity="0.199647" rx="45.1884" ry="45.2186" transform="matrix(0 -1 -1 0 45.2186 22.6884)" fill="#51BFAD"/>
</g>
</svg>
