<svg width="105" height="57" viewBox="0 0 105 57" fill="none" xmlns="http://www.w3.org/2000/svg">
<mask id="mask0_0_581" style="mask-type:alpha" maskUnits="userSpaceOnUse" x="58" y="0" width="4" height="4">
<path fill-rule="evenodd" clip-rule="evenodd" d="M58.8008 0H61.7702V3.84582H58.8008V0Z" fill="white"/>
</mask>
<g mask="url(#mask0_0_581)">
<path fill-rule="evenodd" clip-rule="evenodd" d="M60.3609 3.79287C61.1899 3.55087 61.8209 2.48787 61.7669 1.42787C61.7119 0.36687 61.0159 -0.22913 60.2089 0.0818704C59.4009 0.39387 58.7699 1.43087 58.8019 2.42287C58.8329 3.41487 59.5309 4.03587 60.3609 3.79287" fill="#5260AB"/>
</g>
<path fill-rule="evenodd" clip-rule="evenodd" d="M56.2503 4.86274C57.0903 4.68174 57.7443 3.72474 57.7163 2.74274C57.6873 1.75974 57.0003 1.17474 56.1763 1.40974C55.3523 1.64574 54.6893 2.56174 54.7033 3.49074C54.7163 4.41974 55.4103 5.04474 56.2503 4.86274" fill="#5260AB"/>
<path fill-rule="evenodd" clip-rule="evenodd" d="M64.6965 7.28481C65.5455 7.06681 66.1835 5.98281 66.1135 4.86781C66.0425 3.75181 65.3115 3.08481 64.4865 3.37581C63.6625 3.66581 63.0345 4.73981 63.0805 5.78381C63.1275 6.82881 63.8475 7.50381 64.6965 7.28481" fill="#5260AB"/>
<path fill-rule="evenodd" clip-rule="evenodd" d="M60.5162 8.29216C61.3652 8.11316 62.0202 7.12416 61.9782 6.08916C61.9342 5.05516 61.2252 4.41916 60.3942 4.65816C59.5642 4.89716 58.9112 5.86816 58.9362 6.84116C58.9612 7.81516 59.6682 8.47116 60.5162 8.29216" fill="#5260AB"/>
<path fill-rule="evenodd" clip-rule="evenodd" d="M56.3259 9.08177C57.1779 8.94977 57.8509 8.04777 57.8269 7.08077C57.8039 6.11477 57.1069 5.49177 56.2669 5.67077C55.4269 5.84977 54.7509 6.72077 54.7619 7.64077C54.7729 8.56177 55.4739 9.21577 56.3259 9.08177" fill="#5260AB"/>
<path fill-rule="evenodd" clip-rule="evenodd" d="M52.105 9.62433C52.964 9.54433 53.651 8.72033 53.642 7.80633C53.633 6.89233 52.937 6.26133 52.086 6.37133C51.233 6.48133 50.539 7.26233 50.541 8.14833C50.544 9.03333 51.246 9.70633 52.105 9.62433" fill="#5260AB"/>
<path fill-rule="evenodd" clip-rule="evenodd" d="M77.9553 9.17021C78.8603 8.95421 79.4983 7.68621 79.3493 6.32921C79.2833 5.71621 79.0703 5.19621 78.7773 4.84521H78.7763C78.5783 4.60721 78.3433 4.44721 78.0903 4.38121C77.8953 4.32921 77.6883 4.33521 77.4803 4.40421C76.6083 4.70321 76.0133 5.98721 76.1273 7.26121C76.2423 8.53421 77.0503 9.38521 77.9553 9.17021" fill="#5260AB"/>
<path fill-rule="evenodd" clip-rule="evenodd" d="M73.5394 10.2236C74.4264 10.0256 75.0774 8.84763 74.9664 7.58662C74.8564 6.32463 74.0514 5.52063 73.1914 5.79863C72.3304 6.07563 71.7124 7.26363 71.7944 8.44563C71.8774 9.62663 72.6504 10.4206 73.5394 10.2236" fill="#5260AB"/>
<path fill-rule="evenodd" clip-rule="evenodd" d="M69.1921 11.1773C70.0681 11.0013 70.7281 9.91128 70.6501 8.74128C70.5711 7.56928 69.8021 6.82128 68.9501 7.07028C68.0971 7.31928 67.4591 8.41228 67.5151 9.50928C67.5711 10.6073 68.3171 11.3533 69.1921 11.1773" fill="#5260AB"/>
<path fill-rule="evenodd" clip-rule="evenodd" d="M64.7389 8.19369C63.8899 8.40969 63.2339 9.40869 63.2689 10.4317C63.3039 11.4537 64.0279 12.1647 64.8959 12.0137C65.7639 11.8617 66.4329 10.8577 66.3809 9.77069C66.3279 8.68269 65.5879 7.97769 64.7389 8.19369" fill="#5260AB"/>
<path fill-rule="evenodd" clip-rule="evenodd" d="M60.5415 9.13932C59.6915 9.31432 59.0205 10.2273 59.0395 11.1883C59.0585 12.1483 59.7705 12.8353 60.6325 12.7123C61.4955 12.5893 62.1745 11.6643 62.1415 10.6503C62.1085 9.63532 61.3905 8.96332 60.5415 9.13932" fill="#5260AB"/>
<path fill-rule="evenodd" clip-rule="evenodd" d="M56.3817 13.2574C57.2437 13.1674 57.9297 12.3124 57.9127 11.3594C57.8957 10.4054 57.1897 9.74942 56.3377 9.88042C55.4847 10.0114 54.7987 10.8434 54.8067 11.7574C54.8147 12.6704 55.5197 13.3484 56.3817 13.2574" fill="#5260AB"/>
<path fill-rule="evenodd" clip-rule="evenodd" d="M52.1237 13.6288C52.9867 13.5748 53.6827 12.7828 53.6757 11.8748C53.6687 10.9648 52.9677 10.3088 52.1087 10.3878C51.2487 10.4668 50.5507 11.2298 50.5527 12.1148C50.5547 12.9978 51.2587 13.6838 52.1237 13.6288" fill="#5260AB"/>
<path fill-rule="evenodd" clip-rule="evenodd" d="M47.8417 13.8088C48.7127 13.7938 49.4167 13.0528 49.4147 12.1718C49.4137 11.2898 48.7107 10.6128 47.8407 10.6358C46.9717 10.6578 46.2617 11.3638 46.2617 12.2398C46.2617 13.1138 46.9717 13.8238 47.8417 13.8088" fill="#5260AB"/>
<path fill-rule="evenodd" clip-rule="evenodd" d="M82.9981 14.2371C83.9501 14.0981 84.6511 12.8331 84.5231 11.4051C84.3941 9.97807 83.5081 9.00007 82.5821 9.22707C81.6551 9.45307 81.0141 10.7281 81.1161 12.0681C81.2181 13.4091 82.0461 14.3761 82.9981 14.2371" fill="#5260AB"/>
<path fill-rule="evenodd" clip-rule="evenodd" d="M78.0476 10.279C77.1406 10.492 76.4886 11.675 76.5646 12.921C76.6426 14.167 77.4356 15.064 78.3646 14.936C79.2916 14.806 79.9906 13.63 79.8916 12.302C79.7926 10.975 78.9536 10.066 78.0476 10.279" fill="#5260AB"/>
<path fill-rule="evenodd" clip-rule="evenodd" d="M73.6076 11.2534C72.7176 11.4474 72.0556 12.5444 72.1106 13.7004C72.1656 14.8584 72.9306 15.6964 73.8396 15.5784C74.7466 15.4604 75.4436 14.3694 75.3706 13.1364C75.2966 11.9024 74.4966 11.0594 73.6076 11.2534" fill="#5260AB"/>
<path fill-rule="evenodd" clip-rule="evenodd" d="M69.24 12.1344C68.363 12.3074 67.693 13.3194 67.73 14.3964C67.768 15.4744 68.51 16.2614 69.401 16.1564C70.294 16.0514 70.989 15.0414 70.937 13.8954C70.884 12.7494 70.117 11.9604 69.24 12.1344" fill="#5260AB"/>
<path fill-rule="evenodd" clip-rule="evenodd" d="M64.9279 12.9048C64.0599 13.0538 63.3819 13.9858 63.4049 14.9948C63.4279 16.0028 64.1519 16.7488 65.0329 16.6598C65.9129 16.5708 66.6079 15.6328 66.5729 14.5658C66.5379 13.4978 65.7959 12.7558 64.9279 12.9048" fill="#5260AB"/>
<path fill-rule="evenodd" clip-rule="evenodd" d="M60.6504 13.5491C59.7874 13.6691 59.1014 14.5301 59.1134 15.4821C59.1264 16.4341 59.8394 17.1501 60.7114 17.0781C61.5834 17.0061 62.2784 16.1361 62.2574 15.1361C62.2354 14.1361 61.5134 13.4281 60.6504 13.5491" fill="#5260AB"/>
<path fill-rule="evenodd" clip-rule="evenodd" d="M56.3909 14.0498C55.5289 14.1378 54.8339 14.9368 54.8399 15.8458C54.8449 16.7558 55.5519 17.4548 56.4209 17.4018C57.2889 17.3488 57.9859 16.5368 57.9739 15.5918C57.9629 14.6458 57.2529 13.9608 56.3909 14.0498" fill="#5260AB"/>
<path fill-rule="evenodd" clip-rule="evenodd" d="M52.1365 17.6217C53.0035 17.5907 53.7045 16.8247 53.7005 15.9207C53.6955 15.0157 52.9905 14.3367 52.1265 14.3907C51.2615 14.4447 50.5595 15.1897 50.5605 16.0737C50.5625 16.9567 51.2685 17.6537 52.1365 17.6217" fill="#5260AB"/>
<path fill-rule="evenodd" clip-rule="evenodd" d="M47.8417 14.5564C46.9717 14.5724 46.2617 15.2774 46.2617 16.1534C46.2617 17.0284 46.9707 17.7374 47.8427 17.7284C48.7147 17.7204 49.4207 16.9914 49.4187 16.1104C49.4177 15.2284 48.7127 14.5414 47.8417 14.5564" fill="#5260AB"/>
<path fill-rule="evenodd" clip-rule="evenodd" d="M83.0714 15.409C82.1174 15.545 81.4154 16.729 81.4654 18.051C81.5174 19.373 82.3124 20.405 83.2794 20.357C84.2454 20.309 85.0104 19.129 84.9454 17.718C84.8814 16.309 84.0244 15.273 83.0714 15.409" fill="#5260AB"/>
<path fill-rule="evenodd" clip-rule="evenodd" d="M78.4206 16.024C77.4916 16.15 76.7906 17.249 76.8276 18.476C76.8666 19.704 77.6386 20.662 78.5786 20.617C79.5186 20.573 80.2676 19.478 80.2176 18.168C80.1686 16.859 79.3486 15.897 78.4206 16.024" fill="#5260AB"/>
<path fill-rule="evenodd" clip-rule="evenodd" d="M73.8806 16.5896C72.9706 16.7036 72.2726 17.7236 72.2996 18.8636C72.3286 20.0056 73.0776 20.8966 73.9966 20.8566C74.9136 20.8166 75.6496 19.7996 75.6126 18.5836C75.5756 17.3686 74.7886 16.4746 73.8806 16.5896" fill="#5260AB"/>
<path fill-rule="evenodd" clip-rule="evenodd" d="M69.4288 17.0972C68.5368 17.1982 67.8388 18.1442 67.8578 19.2072C67.8768 20.2722 68.6098 21.1052 69.5098 21.0702C70.4098 21.0352 71.1338 20.0902 71.1078 18.9592C71.0818 17.8292 70.3218 16.9962 69.4288 17.0972" fill="#5260AB"/>
<path fill-rule="evenodd" clip-rule="evenodd" d="M65.0505 17.5388C64.1695 17.6258 63.4735 18.5028 63.4845 19.5008C63.4965 20.4998 64.2165 21.2868 65.1025 21.2558C65.9895 21.2258 66.7045 20.3468 66.6875 19.2908C66.6705 18.2358 65.9305 17.4518 65.0505 17.5388" fill="#5260AB"/>
<path fill-rule="evenodd" clip-rule="evenodd" d="M60.7222 17.906C59.8492 17.976 59.1522 18.795 59.1582 19.74C59.1652 20.686 59.8752 21.435 60.7532 21.41C61.6292 21.386 62.3382 20.562 62.3272 19.57C62.3172 18.58 61.5942 17.835 60.7222 17.906" fill="#5260AB"/>
<path fill-rule="evenodd" clip-rule="evenodd" d="M56.4244 18.1901C55.5564 18.2411 54.8554 19.0121 54.8574 19.9181C54.8604 20.8251 55.5674 21.5461 56.4394 21.5291C57.3114 21.5111 58.0154 20.7331 58.0094 19.7931C58.0044 18.8541 57.2934 18.1391 56.4244 18.1901" fill="#5260AB"/>
<path fill-rule="evenodd" clip-rule="evenodd" d="M52.1384 18.3828C51.2694 18.4128 50.5654 19.1468 50.5664 20.0288C50.5664 20.9098 51.2724 21.6208 52.1434 21.6088C53.0124 21.5988 53.7174 20.8558 53.7144 19.9538C53.7124 19.0518 53.0054 18.3518 52.1384 18.3828" fill="#5260AB"/>
<path fill-rule="evenodd" clip-rule="evenodd" d="M88.1489 26.6331C89.1449 26.6801 89.9949 25.4921 89.9949 23.9811C89.9949 23.6541 89.9549 23.3431 89.8829 23.0531C89.6889 22.2841 89.2619 21.6921 88.7409 21.4501C88.5539 21.3621 88.3539 21.3191 88.1489 21.3271C87.1519 21.3741 86.3799 22.5621 86.3789 23.9811C86.3809 25.3981 87.1519 26.5861 88.1489 26.6331" fill="#5260AB"/>
<path fill-rule="evenodd" clip-rule="evenodd" d="M83.304 21.5174C82.337 21.5614 81.584 22.6644 81.582 23.9814C81.583 25.2964 82.337 26.3994 83.304 26.4434C84.27 26.4874 85.087 25.3854 85.087 23.9814C85.087 22.5754 84.27 21.4734 83.304 21.5174" fill="#5260AB"/>
<path fill-rule="evenodd" clip-rule="evenodd" d="M78.598 21.6941C77.657 21.7361 76.917 22.7591 76.916 23.9811C76.917 25.2021 77.657 26.2261 78.598 26.2661C79.538 26.3081 80.327 25.2831 80.327 23.9811C80.327 22.6771 79.538 21.6531 78.598 21.6941" fill="#5260AB"/>
<path fill-rule="evenodd" clip-rule="evenodd" d="M74.0103 21.857C73.0913 21.894 72.3633 22.845 72.3633 23.981C72.3633 25.116 73.0913 26.068 74.0103 26.104C74.9273 26.142 75.6933 25.191 75.6933 23.981C75.6933 22.771 74.9273 21.82 74.0103 21.857" fill="#5260AB"/>
<path fill-rule="evenodd" clip-rule="evenodd" d="M69.5203 22.0024C68.6203 22.0354 67.9023 22.9204 67.9023 23.9814C67.9023 25.0404 68.6203 25.9264 69.5203 25.9584C70.4203 25.9914 71.1673 25.1064 71.1663 23.9814C71.1663 22.8544 70.4213 21.9694 69.5203 22.0024" fill="#5260AB"/>
<path fill-rule="evenodd" clip-rule="evenodd" d="M65.1087 22.1281C64.2217 22.1561 63.5117 22.9851 63.5117 23.9811C63.5117 24.9761 64.2217 25.8051 65.1087 25.8321C65.9957 25.8601 66.7257 25.0311 66.7257 23.9811C66.7257 22.9291 65.9957 22.1001 65.1087 22.1281" fill="#5260AB"/>
<path fill-rule="evenodd" clip-rule="evenodd" d="M60.7568 22.2329C59.8798 22.2549 59.1738 23.0369 59.1738 23.9809C59.1738 24.9239 59.8798 25.7059 60.7568 25.7279C61.6338 25.7519 62.3518 24.9689 62.3508 23.9809C62.3518 22.9929 61.6348 22.2099 60.7568 22.2329" fill="#5260AB"/>
<path fill-rule="evenodd" clip-rule="evenodd" d="M56.4422 22.3138C55.5702 22.3298 54.8662 23.0758 54.8652 23.9808C54.8662 24.8858 55.5702 25.6318 56.4422 25.6478C57.3132 25.6648 58.0232 24.9188 58.0232 23.9808C58.0232 23.0428 57.3142 22.2968 56.4422 22.3138" fill="#5260AB"/>
<path fill-rule="evenodd" clip-rule="evenodd" d="M83.2794 27.6056C82.3134 27.5576 81.5174 28.5876 81.4654 29.9106C81.4154 31.2326 82.1174 32.4156 83.0714 32.5516C84.0244 32.6876 84.8814 31.6536 84.9454 30.2426C85.0094 28.8326 84.2454 27.6536 83.2794 27.6056" fill="#5260AB"/>
<path fill-rule="evenodd" clip-rule="evenodd" d="M78.5786 27.3448C77.6386 27.2998 76.8676 28.2568 76.8276 29.4848C76.7896 30.7128 77.4906 31.8108 78.4206 31.9368C79.3486 32.0628 80.1676 31.1028 80.2176 29.7928C80.2666 28.4828 79.5186 27.3888 78.5786 27.3448" fill="#5260AB"/>
<path fill-rule="evenodd" clip-rule="evenodd" d="M73.9966 27.1059C73.0786 27.0649 72.3276 27.9559 72.2996 29.0979C72.2726 30.2389 72.9716 31.2569 73.8806 31.3719C74.7886 31.4869 75.5756 30.5939 75.6126 29.3779C75.6496 28.1609 74.9136 27.1459 73.9966 27.1059" fill="#5260AB"/>
<path fill-rule="evenodd" clip-rule="evenodd" d="M69.5098 26.8917C68.6098 26.8567 67.8778 27.6887 67.8578 28.7537C67.8398 29.8187 68.5368 30.7627 69.4288 30.8637C70.3218 30.9647 71.0828 30.1327 71.1088 29.0007C71.1348 27.8707 70.4098 26.9267 69.5098 26.8917" fill="#5260AB"/>
<path fill-rule="evenodd" clip-rule="evenodd" d="M65.1025 26.7065C64.2155 26.6755 63.4965 27.4605 63.4845 28.4605C63.4725 29.4585 64.1695 30.3365 65.0505 30.4225C65.9305 30.5095 66.6695 29.7265 66.6875 28.6705C66.7045 27.6155 65.9885 26.7365 65.1025 26.7065" fill="#5260AB"/>
<path fill-rule="evenodd" clip-rule="evenodd" d="M60.7532 26.5524C59.8752 26.5274 59.1662 27.2764 59.1582 28.2214C59.1522 29.1674 59.8492 29.9864 60.7222 30.0554C61.5952 30.1254 62.3172 29.3824 62.3282 28.3914C62.3392 27.3994 61.6302 26.5774 60.7532 26.5524" fill="#5260AB"/>
<path fill-rule="evenodd" clip-rule="evenodd" d="M56.4404 26.4335C55.5684 26.4145 54.8614 27.1375 54.8594 28.0435C54.8564 28.9505 55.5574 29.7195 56.4254 29.7715C57.2944 29.8225 58.0054 29.1085 58.0114 28.1675C58.0164 27.2275 57.3124 26.4505 56.4404 26.4335" fill="#5260AB"/>
<mask id="mask1_0_581" style="mask-type:alpha" maskUnits="userSpaceOnUse" x="100" y="36" width="5" height="8">
<path fill-rule="evenodd" clip-rule="evenodd" d="M100.582 36.8608H104.579V43.4153H100.582V36.8608Z" fill="white"/>
</mask>
<g mask="url(#mask1_0_581)">
<path fill-rule="evenodd" clip-rule="evenodd" d="M103.004 36.8741C101.914 36.7151 100.89 38.0051 100.639 39.7591C100.39 41.5131 100.977 43.1371 102.025 43.3851C102.857 43.5801 103.751 42.8141 104.234 41.5621C104.359 41.2371 104.455 40.8841 104.515 40.5061C104.563 40.2011 104.583 39.9031 104.579 39.6141C104.579 39.6121 104.579 39.6121 104.58 39.6101C104.56 38.1581 103.909 37.0101 103.004 36.8741" fill="#5260AB"/>
</g>
<path fill-rule="evenodd" clip-rule="evenodd" d="M82.9981 33.7234C82.0451 33.5834 81.2191 34.5514 81.1161 35.8924C81.0141 37.2324 81.6541 38.5084 82.5821 38.7354C83.5071 38.9624 84.3951 37.9824 84.5231 36.5554C84.6511 35.1274 83.9501 33.8634 82.9981 33.7234" fill="#5260AB"/>
<path fill-rule="evenodd" clip-rule="evenodd" d="M78.3656 33.0255C77.4366 32.8965 76.6426 33.7945 76.5666 35.0405C76.4906 36.2845 77.1426 37.4715 78.0486 37.6835C78.9546 37.8955 79.7946 36.9865 79.8926 35.6585C79.9926 34.3315 79.2936 33.1555 78.3656 33.0255" fill="#5260AB"/>
<path fill-rule="evenodd" clip-rule="evenodd" d="M73.8396 32.3827C72.9306 32.2647 72.1656 33.1027 72.1106 34.2607C72.0556 35.4167 72.7186 36.5147 73.6076 36.7097C74.4966 36.9037 75.2966 36.0587 75.3706 34.8247C75.4436 33.5917 74.7466 32.4997 73.8396 32.3827" fill="#5260AB"/>
<path fill-rule="evenodd" clip-rule="evenodd" d="M69.401 31.8048C68.51 31.6998 67.767 32.4878 67.73 33.5648C67.693 34.6418 68.363 35.6558 69.24 35.8278C70.117 36.0018 70.884 35.2128 70.937 34.0658C70.99 32.9198 70.293 31.9088 69.401 31.8048" fill="#5260AB"/>
<path fill-rule="evenodd" clip-rule="evenodd" d="M65.0329 31.3018C64.1519 31.2118 63.4279 31.9588 63.4049 32.9668C63.3809 33.9748 64.0599 34.9078 64.9279 35.0578C65.7959 35.2068 66.5379 34.4638 66.5739 33.3948C66.6089 32.3278 65.9129 31.3908 65.0329 31.3018" fill="#5260AB"/>
<path fill-rule="evenodd" clip-rule="evenodd" d="M60.7114 30.8834C59.8384 30.8114 59.1264 31.5274 59.1134 32.4794C59.1014 33.4314 59.7874 34.2934 60.6504 34.4134C61.5134 34.5344 62.2354 33.8264 62.2574 32.8254C62.2794 31.8254 61.5834 30.9554 60.7114 30.8834" fill="#5260AB"/>
<path fill-rule="evenodd" clip-rule="evenodd" d="M56.4189 30.5595C55.5499 30.5065 54.8429 31.2065 54.8379 32.1155C54.8329 33.0245 55.5269 33.8235 56.3889 33.9125C57.2509 34.0015 57.9619 33.3155 57.9729 32.3695C57.9839 31.4245 57.2879 30.6115 56.4189 30.5595" fill="#5260AB"/>
<path fill-rule="evenodd" clip-rule="evenodd" d="M82.4596 39.9257C81.5326 39.6947 80.6866 40.6127 80.5326 41.9827C80.3796 43.3527 80.9486 44.7277 81.8356 45.0437C82.7206 45.3597 83.6256 44.4247 83.8176 42.9717C84.0096 41.5157 83.3846 40.1567 82.4596 39.9257" fill="#5260AB"/>
<path fill-rule="evenodd" clip-rule="evenodd" d="M77.9555 38.7908C77.0495 38.5748 76.2435 39.4268 76.1275 40.7008C76.0125 41.9728 76.6085 43.2578 77.4805 43.5568C78.3515 43.8568 79.2025 42.9898 79.3495 41.6328C79.4985 40.2748 78.8605 39.0068 77.9555 38.7908" fill="#5260AB"/>
<path fill-rule="evenodd" clip-rule="evenodd" d="M73.1914 42.1628C74.0504 42.4398 74.8564 41.6358 74.9664 40.3748C75.0774 39.1128 74.4264 37.9348 73.5394 37.7368C72.6494 37.5388 71.8784 38.3348 71.7944 39.5168C71.7124 40.6978 72.3304 41.8858 73.1914 42.1628" fill="#5260AB"/>
<path fill-rule="evenodd" clip-rule="evenodd" d="M69.1921 36.7835C68.3161 36.6075 67.5711 37.3555 67.5151 38.4525C67.4591 39.5495 68.0971 40.6415 68.9501 40.8905C69.8031 41.1405 70.5711 40.3915 70.6501 39.2205C70.7291 38.0495 70.0681 36.9595 69.1921 36.7835" fill="#5260AB"/>
<path fill-rule="evenodd" clip-rule="evenodd" d="M64.8959 35.9477C64.0279 35.7957 63.3039 36.5077 63.2689 37.5307C63.2339 38.5527 63.8899 39.5517 64.7389 39.7677C65.5879 39.9837 66.3279 39.2777 66.3809 38.1917C66.4339 37.1037 65.7639 36.0987 64.8959 35.9477" fill="#5260AB"/>
<path fill-rule="evenodd" clip-rule="evenodd" d="M60.6325 35.2486C59.7695 35.1256 59.0585 35.8116 59.0395 36.7736C59.0205 37.7346 59.6915 38.6456 60.5415 38.8216C61.3905 38.9986 62.1085 38.3256 62.1405 37.3116C62.1735 36.2966 61.4955 35.3706 60.6325 35.2486" fill="#5260AB"/>
<path fill-rule="evenodd" clip-rule="evenodd" d="M81.6627 46.2664C80.7777 45.9474 79.9197 46.8204 79.7147 48.2334C79.5097 49.6444 79.9967 51.1304 80.8307 51.5324C81.6617 51.9344 82.5737 51.0354 82.8297 49.5394C83.0857 48.0434 82.5467 46.5854 81.6627 46.2664" fill="#5260AB"/>
<path fill-rule="evenodd" clip-rule="evenodd" d="M77.3486 44.6962C76.4786 44.3922 75.6666 45.2022 75.5126 46.5172C75.3596 47.8322 75.8886 49.2232 76.7156 49.6112C77.5426 49.9992 78.3916 49.1672 78.5886 47.7672C78.7866 46.3672 78.2186 44.9992 77.3486 44.6962" fill="#5260AB"/>
<path fill-rule="evenodd" clip-rule="evenodd" d="M73.0965 43.2209C72.2375 42.9399 71.4635 43.6929 71.3535 44.9119C71.2435 46.1299 71.8105 47.4189 72.6335 47.7839C73.4535 48.1479 74.2555 47.3799 74.4025 46.0779C74.5505 44.7759 73.9555 43.5009 73.0965 43.2209" fill="#5260AB"/>
<path fill-rule="evenodd" clip-rule="evenodd" d="M68.8843 41.8707C68.0333 41.6177 67.2903 42.3247 67.2153 43.4527C67.1403 44.5807 67.7403 45.7617 68.5613 46.0937C69.3833 46.4257 70.1443 45.7137 70.2493 44.5077C70.3553 43.3007 69.7363 42.1237 68.8843 41.8707" fill="#5260AB"/>
<path fill-rule="evenodd" clip-rule="evenodd" d="M64.6965 40.6771C63.8475 40.4581 63.1275 41.1311 63.0805 42.1761C63.0345 43.2211 63.6625 44.2951 64.4875 44.5851C65.3115 44.8761 66.0425 44.2091 66.1135 43.0931C66.1845 41.9771 65.5445 40.8951 64.6965 40.6771" fill="#5260AB"/>
<path fill-rule="evenodd" clip-rule="evenodd" d="M76.5492 50.7907C75.7262 50.3997 74.9172 51.1747 74.7252 52.5417C74.5342 53.9087 74.9882 55.4227 75.7582 55.9007C76.1212 56.1237 76.4962 56.0677 76.8212 55.7887C76.8212 55.7877 76.8212 55.7877 76.8212 55.7867C77.0002 55.6337 77.1652 55.4107 77.2992 55.1337C77.2992 55.1327 77.3002 55.1327 77.3002 55.1317C77.4402 54.8467 77.5482 54.5017 77.6132 54.1157C77.8602 52.6617 77.3732 51.1827 76.5492 50.7907" fill="#5260AB"/>
<path fill-rule="evenodd" clip-rule="evenodd" d="M72.5093 48.8781C71.6893 48.5101 70.9223 49.2271 70.7843 50.4921C70.6463 51.7561 71.1553 53.1631 71.9293 53.6201C72.7023 54.0781 73.4913 53.3361 73.6763 51.9831C73.8603 50.6281 73.3293 49.2461 72.5093 48.8781" fill="#5260AB"/>
<path fill-rule="evenodd" clip-rule="evenodd" d="M68.4755 47.1053C67.6555 46.7703 66.9215 47.4403 66.8285 48.6053C66.7355 49.7693 67.2905 51.0573 68.0715 51.4793C68.8535 51.9033 69.6015 51.2233 69.7335 49.9723C69.8645 48.7193 69.2955 47.4413 68.4755 47.1053" fill="#5260AB"/>
<path fill-rule="evenodd" clip-rule="evenodd" d="M64.4309 45.5191C63.6079 45.2251 62.8969 45.8611 62.8379 46.9341C62.7799 48.0061 63.3759 49.1711 64.1689 49.5441C64.9619 49.9181 65.6799 49.2891 65.7679 48.1361C65.8559 46.9841 65.2539 45.8121 64.4309 45.5191" fill="#5260AB"/>
<path fill-rule="evenodd" clip-rule="evenodd" d="M86.054 47.9015C85.15 47.5725 84.237 48.5135 83.971 50.0215C83.707 51.5285 84.146 53.0975 84.991 53.5045C85.833 53.9125 86.815 52.9435 87.139 51.3585C87.464 49.7715 86.956 48.2315 86.054 47.9015" fill="#5260AB"/>
<path fill-rule="evenodd" clip-rule="evenodd" d="M87.0708 41.1236C86.1208 40.8826 85.2248 41.8706 85.0248 43.3386C84.8278 44.8056 85.3678 46.2716 86.2728 46.5976C87.1768 46.9236 88.1468 45.9196 88.3888 44.3676C88.6328 42.8136 88.0198 41.3656 87.0708 41.1236" fill="#5260AB"/>
<path fill-rule="evenodd" clip-rule="evenodd" d="M87.758 34.4671C86.776 34.3191 85.911 35.3621 85.777 36.8031C85.646 38.2431 86.275 39.6101 87.226 39.8481C88.177 40.0841 89.119 39.0321 89.281 37.5011C89.444 35.9701 88.738 34.6151 87.758 34.4671" fill="#5260AB"/>
<path fill-rule="evenodd" clip-rule="evenodd" d="M87.8518 33.2074C88.8328 33.3504 89.7358 32.2364 89.8168 30.7204C89.8978 29.2024 89.1128 27.9354 88.1178 27.8844C87.1208 27.8344 86.2968 28.9434 86.2288 30.3674C86.1638 31.7914 86.8698 33.0644 87.8518 33.2074" fill="#5260AB"/>
<path fill-rule="evenodd" clip-rule="evenodd" d="M91.8074 42.366C90.8304 42.118 89.8764 43.179 89.6254 44.746C89.3764 46.311 89.8854 47.859 90.8124 48.189C91.7374 48.52 92.7794 47.445 93.0794 45.798C93.3804 44.149 92.7844 42.614 91.8074 42.366" fill="#5260AB"/>
<path fill-rule="evenodd" clip-rule="evenodd" d="M92.6655 35.2464C91.6535 35.0934 90.7395 36.2144 90.5715 37.7594C90.4065 39.3044 91.0235 40.7594 92.0015 41.0044C92.9805 41.2484 93.9855 40.1184 94.1855 38.4834C94.3865 36.8474 93.6775 35.3994 92.6655 35.2464" fill="#5260AB"/>
<path fill-rule="evenodd" clip-rule="evenodd" d="M96.6912 43.6355C95.6812 43.3835 94.6632 44.5225 94.3532 46.1825C94.0452 47.8415 94.5192 49.4615 95.4722 49.7915C96.4232 50.1205 97.5472 48.9765 97.9122 47.2415C98.2782 45.5025 97.6982 43.8875 96.6912 43.6355" fill="#5260AB"/>
<path fill-rule="evenodd" clip-rule="evenodd" d="M97.7423 36.052C96.6923 35.894 95.7273 37.1 95.5203 38.749C95.3153 40.399 95.9183 41.94 96.9293 42.189C97.9383 42.437 99.0143 41.229 99.2573 39.489C99.5023 37.748 98.7893 36.21 97.7423 36.052" fill="#5260AB"/>
<path fill-rule="evenodd" clip-rule="evenodd" d="M27.1191 41.0654V55.7624H29.8151V51.8724H32.7951L33.4981 49.8394H29.8151V43.3194H35.7541L36.5341 41.0654H27.1191Z" fill="#5260AB"/>
<path fill-rule="evenodd" clip-rule="evenodd" d="M8.53 48.501C8.089 48.162 7.666 47.9 7.26 47.708C7.251 47.703 7.239 47.699 7.229 47.695C6.831 47.508 6.379 47.335 5.871 47.178C5.345 47.013 4.851 46.857 4.387 46.701C3.924 46.546 3.572 46.349 3.336 46.113C2.984 45.762 2.806 45.347 2.806 44.879C2.806 44.229 3.02 43.748 3.438 43.441C3.67 43.271 3.977 43.147 4.352 43.071C4.352 43.071 4.401 43.062 4.494 43.044C4.516 43.04 4.543 43.035 4.57 43.035C4.632 43.026 4.704 43.017 4.784 43.009C4.842 43 4.895 42.995 4.957 42.995C4.989 42.995 5.02 42.991 5.051 42.991C5.158 42.982 5.269 42.977 5.381 42.977C5.755 42.977 6.067 43.004 6.312 43.058C6.347 43.062 6.387 43.071 6.427 43.08C7.103 43.202 7.842 43.484 8.479 44.043L9.283 41.695V41.694C7.987 41.093 6.583 40.79 5.073 40.79C3.563 40.79 2.338 41.178 1.403 41.948C0.467 42.723 0 43.784 0 45.133C0 46.479 0.436 47.476 1.305 48.127C1.746 48.452 2.187 48.706 2.619 48.889C3.055 49.071 3.599 49.254 4.254 49.432C4.913 49.606 5.443 49.797 5.857 50.007C6.041 50.09 6.201 50.184 6.341 50.288C6.798 50.626 7.029 51.076 7.029 51.641C7.029 52.818 6.407 53.5 5.175 53.697C5.096 53.709 5.023 53.727 4.94 53.735C4.94 53.735 4.922 53.735 4.891 53.74C4.541 53.78 2.348 53.955 0.898 52.705L0.066 55.134C1.363 55.735 2.828 56.038 4.454 56.038C6.08 56.038 7.394 55.642 8.387 54.844C9.381 54.051 9.88 52.96 9.88 51.575C9.88 50.189 9.43 49.165 8.53 48.501" fill="#5260AB"/>
<path fill-rule="evenodd" clip-rule="evenodd" d="M19.095 41.0654H16.028L11.776 53.4894L10.998 55.7624H13.547L14.255 53.8174L14.918 51.8724L15.449 49.8394L17.504 43.5404H17.57L19.559 49.8394H17.23L16.7 51.8724H20.09L20.596 53.4414L21.346 55.7624H24.392L23.604 53.8174L19.095 41.0654Z" fill="#5260AB"/>
<path fill-rule="evenodd" clip-rule="evenodd" d="M48.8951 53.8179L44.3861 41.0659H41.3201L37.0671 53.4889L36.2891 55.7629H38.8381L39.5461 53.8179L40.2091 51.8729L40.7401 49.8399L42.7951 43.5409H42.8611L44.8501 49.8399H42.5221L41.9911 51.8729H45.3811L45.8881 53.4419L46.6371 55.7629H49.6831L48.8951 53.8179Z" fill="#5260AB"/>
<path fill-rule="evenodd" clip-rule="evenodd" d="M24.7805 25.0816C25.1975 25.0816 25.5595 24.9506 25.8685 24.6886C26.1775 24.4266 26.3325 24.0396 26.3325 23.5286C26.3325 23.0736 26.1835 22.7046 25.8875 22.4216C25.5915 22.1386 25.2215 21.9976 24.7805 21.9976C24.3385 21.9976 23.9695 22.1386 23.6735 22.4216C23.3765 22.7046 23.2285 23.0736 23.2285 23.5286C23.2285 24.0396 23.3825 24.4266 23.6925 24.6886C24.0015 24.9506 24.3645 25.0816 24.7805 25.0816" fill="#5260AB"/>
<path fill-rule="evenodd" clip-rule="evenodd" d="M47.0362 34.3868H38.8782V29.9588H44.9152C45.2562 29.9588 45.5702 30.0288 45.8532 30.1678C46.1372 30.3078 46.3612 30.4828 46.5242 30.6958C46.7032 30.9128 46.8312 31.1608 46.9122 31.4438C46.9972 31.7268 47.0362 32.0608 47.0362 32.4368V34.3868ZM49.4402 30.3858C49.2772 29.7228 48.9902 29.1758 48.5872 28.7488C48.1102 28.2448 47.5482 27.8808 46.9042 27.6598C46.2612 27.4388 45.5082 27.3298 44.6512 27.3298H38.8782V26.3838H36.2302V34.3858H34.6872V34.3868H30.4492V36.7258H36.2302H36.4962H49.6842V32.5528C49.6842 31.7698 49.6032 31.0488 49.4402 30.3858V30.3858Z" fill="#5260AB"/>
<path fill-rule="evenodd" clip-rule="evenodd" d="M26.067 34.3866H23.326C22.884 34.0846 22.531 33.7046 22.275 33.2506C22.015 32.7966 21.887 32.2816 21.887 31.6996C21.887 31.2736 21.973 30.8896 22.151 30.5556C22.329 30.2226 22.558 29.9396 22.841 29.7146C23.124 29.4856 23.454 29.3146 23.826 29.2026C24.198 29.0906 24.574 29.0316 24.95 29.0316H26.067V34.3866ZM23.004 26.7406C22.221 26.9806 21.55 27.3296 20.996 27.7916C20.441 28.2526 20.011 28.8106 19.7 29.4666C19.39 30.1216 19.235 30.8656 19.235 31.6996C19.235 32.2426 19.32 32.7346 19.483 33.1766C19.646 33.6186 19.867 34.0226 20.146 34.3866H2.648V21.9976L0 24.3406V36.7256H28.719V26.3836H25.594C24.648 26.3836 23.783 26.5036 23.004 26.7406V26.7406Z" fill="#5260AB"/>
<mask id="mask2_0_581" style="mask-type:alpha" maskUnits="userSpaceOnUse" x="58" y="0" width="4" height="4">
<path fill-rule="evenodd" clip-rule="evenodd" d="M58.8008 0H61.7702V3.84582H58.8008V0Z" fill="white"/>
</mask>
<g mask="url(#mask2_0_581)">
<path fill-rule="evenodd" clip-rule="evenodd" d="M60.3609 3.79287C61.1899 3.55087 61.8209 2.48787 61.7669 1.42787C61.7119 0.36687 61.0159 -0.22913 60.2089 0.0818704C59.4009 0.39387 58.7699 1.43087 58.8019 2.42287C58.8329 3.41487 59.5309 4.03587 60.3609 3.79287" fill="white"/>
</g>
<path fill-rule="evenodd" clip-rule="evenodd" d="M56.2503 4.86274C57.0903 4.68174 57.7443 3.72474 57.7163 2.74274C57.6873 1.75974 57.0003 1.17474 56.1763 1.40974C55.3523 1.64574 54.6893 2.56174 54.7033 3.49074C54.7163 4.41974 55.4103 5.04474 56.2503 4.86274" fill="white"/>
<path fill-rule="evenodd" clip-rule="evenodd" d="M64.6965 7.28481C65.5455 7.06681 66.1835 5.98281 66.1135 4.86781C66.0425 3.75181 65.3115 3.08481 64.4865 3.37581C63.6625 3.66581 63.0345 4.73981 63.0805 5.78381C63.1275 6.82881 63.8475 7.50381 64.6965 7.28481" fill="white"/>
<path fill-rule="evenodd" clip-rule="evenodd" d="M60.5162 8.29216C61.3652 8.11316 62.0202 7.12416 61.9782 6.08916C61.9342 5.05516 61.2252 4.41916 60.3942 4.65816C59.5642 4.89716 58.9112 5.86816 58.9362 6.84116C58.9612 7.81516 59.6682 8.47116 60.5162 8.29216" fill="white"/>
<path fill-rule="evenodd" clip-rule="evenodd" d="M56.3259 9.08177C57.1779 8.94977 57.8509 8.04777 57.8269 7.08077C57.8039 6.11477 57.1069 5.49177 56.2669 5.67077C55.4269 5.84977 54.7509 6.72077 54.7619 7.64077C54.7729 8.56177 55.4739 9.21577 56.3259 9.08177" fill="white"/>
<path fill-rule="evenodd" clip-rule="evenodd" d="M52.105 9.62433C52.964 9.54433 53.651 8.72033 53.642 7.80633C53.633 6.89233 52.937 6.26133 52.086 6.37133C51.233 6.48133 50.539 7.26233 50.541 8.14833C50.544 9.03333 51.246 9.70633 52.105 9.62433" fill="white"/>
<path fill-rule="evenodd" clip-rule="evenodd" d="M77.9553 9.17021C78.8603 8.95421 79.4983 7.68621 79.3493 6.32921C79.2833 5.71621 79.0703 5.19621 78.7773 4.84521H78.7763C78.5783 4.60721 78.3433 4.44721 78.0903 4.38121C77.8953 4.32921 77.6883 4.33521 77.4803 4.40421C76.6083 4.70321 76.0133 5.98721 76.1273 7.26121C76.2423 8.53421 77.0503 9.38521 77.9553 9.17021" fill="white"/>
<path fill-rule="evenodd" clip-rule="evenodd" d="M73.5394 10.2236C74.4264 10.0256 75.0774 8.84763 74.9664 7.58662C74.8564 6.32463 74.0514 5.52063 73.1914 5.79863C72.3304 6.07563 71.7124 7.26363 71.7944 8.44563C71.8774 9.62663 72.6504 10.4206 73.5394 10.2236" fill="white"/>
<path fill-rule="evenodd" clip-rule="evenodd" d="M69.1921 11.1773C70.0681 11.0013 70.7281 9.91128 70.6501 8.74128C70.5711 7.56928 69.8021 6.82128 68.9501 7.07028C68.0971 7.31928 67.4591 8.41228 67.5151 9.50928C67.5711 10.6073 68.3171 11.3533 69.1921 11.1773" fill="white"/>
<path fill-rule="evenodd" clip-rule="evenodd" d="M64.7389 8.19369C63.8899 8.40969 63.2339 9.40869 63.2689 10.4317C63.3039 11.4537 64.0279 12.1647 64.8959 12.0137C65.7639 11.8617 66.4329 10.8577 66.3809 9.77069C66.3279 8.68269 65.5879 7.97769 64.7389 8.19369" fill="white"/>
<path fill-rule="evenodd" clip-rule="evenodd" d="M60.5415 9.13932C59.6915 9.31432 59.0205 10.2273 59.0395 11.1883C59.0585 12.1483 59.7705 12.8353 60.6325 12.7123C61.4955 12.5893 62.1745 11.6643 62.1415 10.6503C62.1085 9.63532 61.3905 8.96332 60.5415 9.13932" fill="white"/>
<path fill-rule="evenodd" clip-rule="evenodd" d="M56.3817 13.2574C57.2437 13.1674 57.9297 12.3124 57.9127 11.3594C57.8957 10.4054 57.1897 9.74942 56.3377 9.88042C55.4847 10.0114 54.7987 10.8434 54.8067 11.7574C54.8147 12.6704 55.5197 13.3484 56.3817 13.2574" fill="white"/>
<path fill-rule="evenodd" clip-rule="evenodd" d="M52.1237 13.6288C52.9867 13.5748 53.6827 12.7828 53.6757 11.8748C53.6687 10.9648 52.9677 10.3088 52.1087 10.3878C51.2487 10.4668 50.5507 11.2298 50.5527 12.1148C50.5547 12.9978 51.2587 13.6838 52.1237 13.6288" fill="white"/>
<path fill-rule="evenodd" clip-rule="evenodd" d="M47.8417 13.8088C48.7127 13.7938 49.4167 13.0528 49.4147 12.1718C49.4137 11.2898 48.7107 10.6128 47.8407 10.6358C46.9717 10.6578 46.2617 11.3638 46.2617 12.2398C46.2617 13.1138 46.9717 13.8238 47.8417 13.8088" fill="white"/>
<path fill-rule="evenodd" clip-rule="evenodd" d="M82.9981 14.2371C83.9501 14.0981 84.6511 12.8331 84.5231 11.4051C84.3941 9.97807 83.5081 9.00007 82.5821 9.22707C81.6551 9.45307 81.0141 10.7281 81.1161 12.0681C81.2181 13.4091 82.0461 14.3761 82.9981 14.2371" fill="white"/>
<path fill-rule="evenodd" clip-rule="evenodd" d="M78.0476 10.279C77.1406 10.492 76.4886 11.675 76.5646 12.921C76.6426 14.167 77.4356 15.064 78.3646 14.936C79.2916 14.806 79.9906 13.63 79.8916 12.302C79.7926 10.975 78.9536 10.066 78.0476 10.279" fill="white"/>
<path fill-rule="evenodd" clip-rule="evenodd" d="M73.6076 11.2534C72.7176 11.4474 72.0556 12.5444 72.1106 13.7004C72.1656 14.8584 72.9306 15.6964 73.8396 15.5784C74.7466 15.4604 75.4436 14.3694 75.3706 13.1364C75.2966 11.9024 74.4966 11.0594 73.6076 11.2534" fill="white"/>
<path fill-rule="evenodd" clip-rule="evenodd" d="M69.24 12.1344C68.363 12.3074 67.693 13.3194 67.73 14.3964C67.768 15.4744 68.51 16.2614 69.401 16.1564C70.294 16.0514 70.989 15.0414 70.937 13.8954C70.884 12.7494 70.117 11.9604 69.24 12.1344" fill="white"/>
<path fill-rule="evenodd" clip-rule="evenodd" d="M64.9279 12.9048C64.0599 13.0538 63.3819 13.9858 63.4049 14.9948C63.4279 16.0028 64.1519 16.7488 65.0329 16.6598C65.9129 16.5708 66.6079 15.6328 66.5729 14.5658C66.5379 13.4978 65.7959 12.7558 64.9279 12.9048" fill="white"/>
<path fill-rule="evenodd" clip-rule="evenodd" d="M60.6504 13.5491C59.7874 13.6691 59.1014 14.5301 59.1134 15.4821C59.1264 16.4341 59.8394 17.1501 60.7114 17.0781C61.5834 17.0061 62.2784 16.1361 62.2574 15.1361C62.2354 14.1361 61.5134 13.4281 60.6504 13.5491" fill="white"/>
<path fill-rule="evenodd" clip-rule="evenodd" d="M56.3909 14.0498C55.5289 14.1378 54.8339 14.9368 54.8399 15.8458C54.8449 16.7558 55.5519 17.4548 56.4209 17.4018C57.2889 17.3488 57.9859 16.5368 57.9739 15.5918C57.9629 14.6458 57.2529 13.9608 56.3909 14.0498" fill="white"/>
<path fill-rule="evenodd" clip-rule="evenodd" d="M52.1365 17.6217C53.0035 17.5907 53.7045 16.8247 53.7005 15.9207C53.6955 15.0157 52.9905 14.3367 52.1265 14.3907C51.2615 14.4447 50.5595 15.1897 50.5605 16.0737C50.5625 16.9567 51.2685 17.6537 52.1365 17.6217" fill="white"/>
<path fill-rule="evenodd" clip-rule="evenodd" d="M47.8417 14.5564C46.9717 14.5724 46.2617 15.2774 46.2617 16.1534C46.2617 17.0284 46.9707 17.7374 47.8427 17.7284C48.7147 17.7204 49.4207 16.9914 49.4187 16.1104C49.4177 15.2284 48.7127 14.5414 47.8417 14.5564" fill="white"/>
<path fill-rule="evenodd" clip-rule="evenodd" d="M83.0714 15.409C82.1174 15.545 81.4154 16.729 81.4654 18.051C81.5174 19.373 82.3124 20.405 83.2794 20.357C84.2454 20.309 85.0104 19.129 84.9454 17.718C84.8814 16.309 84.0244 15.273 83.0714 15.409" fill="white"/>
<path fill-rule="evenodd" clip-rule="evenodd" d="M78.4206 16.024C77.4916 16.15 76.7906 17.249 76.8276 18.476C76.8666 19.704 77.6386 20.662 78.5786 20.617C79.5186 20.573 80.2676 19.478 80.2176 18.168C80.1686 16.859 79.3486 15.897 78.4206 16.024" fill="white"/>
<path fill-rule="evenodd" clip-rule="evenodd" d="M73.8806 16.5896C72.9706 16.7036 72.2726 17.7236 72.2996 18.8636C72.3286 20.0056 73.0776 20.8966 73.9966 20.8566C74.9136 20.8166 75.6496 19.7996 75.6126 18.5836C75.5756 17.3686 74.7886 16.4746 73.8806 16.5896" fill="white"/>
<path fill-rule="evenodd" clip-rule="evenodd" d="M69.4288 17.0972C68.5368 17.1982 67.8388 18.1442 67.8578 19.2072C67.8768 20.2722 68.6098 21.1052 69.5098 21.0702C70.4098 21.0352 71.1338 20.0902 71.1078 18.9592C71.0818 17.8292 70.3218 16.9962 69.4288 17.0972" fill="white"/>
<path fill-rule="evenodd" clip-rule="evenodd" d="M65.0505 17.5388C64.1695 17.6258 63.4735 18.5028 63.4845 19.5008C63.4965 20.4998 64.2165 21.2868 65.1025 21.2558C65.9895 21.2258 66.7045 20.3468 66.6875 19.2908C66.6705 18.2358 65.9305 17.4518 65.0505 17.5388" fill="white"/>
<path fill-rule="evenodd" clip-rule="evenodd" d="M60.7222 17.906C59.8492 17.976 59.1522 18.795 59.1582 19.74C59.1652 20.686 59.8752 21.435 60.7532 21.41C61.6292 21.386 62.3382 20.562 62.3272 19.57C62.3172 18.58 61.5942 17.835 60.7222 17.906" fill="white"/>
<path fill-rule="evenodd" clip-rule="evenodd" d="M56.4244 18.1901C55.5564 18.2411 54.8554 19.0121 54.8574 19.9181C54.8604 20.8251 55.5674 21.5461 56.4394 21.5291C57.3114 21.5111 58.0154 20.7331 58.0094 19.7931C58.0044 18.8541 57.2934 18.1391 56.4244 18.1901" fill="white"/>
<path fill-rule="evenodd" clip-rule="evenodd" d="M52.1384 18.3828C51.2694 18.4128 50.5654 19.1468 50.5664 20.0288C50.5664 20.9098 51.2724 21.6208 52.1434 21.6088C53.0124 21.5988 53.7174 20.8558 53.7144 19.9538C53.7124 19.0518 53.0054 18.3518 52.1384 18.3828" fill="white"/>
<path fill-rule="evenodd" clip-rule="evenodd" d="M88.1489 26.6331C89.1449 26.6801 89.9949 25.4921 89.9949 23.9811C89.9949 23.6541 89.9549 23.3431 89.8829 23.0531C89.6889 22.2841 89.2619 21.6921 88.7409 21.4501C88.5539 21.3621 88.3539 21.3191 88.1489 21.3271C87.1519 21.3741 86.3799 22.5621 86.3789 23.9811C86.3809 25.3981 87.1519 26.5861 88.1489 26.6331" fill="white"/>
<path fill-rule="evenodd" clip-rule="evenodd" d="M83.304 21.5174C82.337 21.5614 81.584 22.6644 81.582 23.9814C81.583 25.2964 82.337 26.3994 83.304 26.4434C84.27 26.4874 85.087 25.3854 85.087 23.9814C85.087 22.5754 84.27 21.4734 83.304 21.5174" fill="white"/>
<path fill-rule="evenodd" clip-rule="evenodd" d="M78.598 21.6941C77.657 21.7361 76.917 22.7591 76.916 23.9811C76.917 25.2021 77.657 26.2261 78.598 26.2661C79.538 26.3081 80.327 25.2831 80.327 23.9811C80.327 22.6771 79.538 21.6531 78.598 21.6941" fill="white"/>
<path fill-rule="evenodd" clip-rule="evenodd" d="M74.0103 21.857C73.0913 21.894 72.3633 22.845 72.3633 23.981C72.3633 25.116 73.0913 26.068 74.0103 26.104C74.9273 26.142 75.6933 25.191 75.6933 23.981C75.6933 22.771 74.9273 21.82 74.0103 21.857" fill="white"/>
<path fill-rule="evenodd" clip-rule="evenodd" d="M69.5203 22.0024C68.6203 22.0354 67.9023 22.9204 67.9023 23.9814C67.9023 25.0404 68.6203 25.9264 69.5203 25.9584C70.4203 25.9914 71.1673 25.1064 71.1663 23.9814C71.1663 22.8544 70.4213 21.9694 69.5203 22.0024" fill="white"/>
<path fill-rule="evenodd" clip-rule="evenodd" d="M65.1087 22.1281C64.2217 22.1561 63.5117 22.9851 63.5117 23.9811C63.5117 24.9761 64.2217 25.8051 65.1087 25.8321C65.9957 25.8601 66.7257 25.0311 66.7257 23.9811C66.7257 22.9291 65.9957 22.1001 65.1087 22.1281" fill="white"/>
<path fill-rule="evenodd" clip-rule="evenodd" d="M60.7568 22.2329C59.8798 22.2549 59.1738 23.0369 59.1738 23.9809C59.1738 24.9239 59.8798 25.7059 60.7568 25.7279C61.6338 25.7519 62.3518 24.9689 62.3508 23.9809C62.3518 22.9929 61.6348 22.2099 60.7568 22.2329" fill="white"/>
<path fill-rule="evenodd" clip-rule="evenodd" d="M56.4422 22.3138C55.5702 22.3298 54.8662 23.0758 54.8652 23.9808C54.8662 24.8858 55.5702 25.6318 56.4422 25.6478C57.3132 25.6648 58.0232 24.9188 58.0232 23.9808C58.0232 23.0428 57.3142 22.2968 56.4422 22.3138" fill="white"/>
<path fill-rule="evenodd" clip-rule="evenodd" d="M83.2794 27.6056C82.3134 27.5576 81.5174 28.5876 81.4654 29.9106C81.4154 31.2326 82.1174 32.4156 83.0714 32.5516C84.0244 32.6876 84.8814 31.6536 84.9454 30.2426C85.0094 28.8326 84.2454 27.6536 83.2794 27.6056" fill="white"/>
<path fill-rule="evenodd" clip-rule="evenodd" d="M78.5786 27.3448C77.6386 27.2998 76.8676 28.2568 76.8276 29.4848C76.7896 30.7128 77.4906 31.8108 78.4206 31.9368C79.3486 32.0628 80.1676 31.1028 80.2176 29.7928C80.2666 28.4828 79.5186 27.3888 78.5786 27.3448" fill="white"/>
<path fill-rule="evenodd" clip-rule="evenodd" d="M73.9966 27.1059C73.0786 27.0649 72.3276 27.9559 72.2996 29.0979C72.2726 30.2389 72.9716 31.2569 73.8806 31.3719C74.7886 31.4869 75.5756 30.5939 75.6126 29.3779C75.6496 28.1609 74.9136 27.1459 73.9966 27.1059" fill="white"/>
<path fill-rule="evenodd" clip-rule="evenodd" d="M69.5098 26.8917C68.6098 26.8567 67.8778 27.6887 67.8578 28.7537C67.8398 29.8187 68.5368 30.7627 69.4288 30.8637C70.3218 30.9647 71.0828 30.1327 71.1088 29.0007C71.1348 27.8707 70.4098 26.9267 69.5098 26.8917" fill="white"/>
<path fill-rule="evenodd" clip-rule="evenodd" d="M65.1025 26.7065C64.2155 26.6755 63.4965 27.4605 63.4845 28.4605C63.4725 29.4585 64.1695 30.3365 65.0505 30.4225C65.9305 30.5095 66.6695 29.7265 66.6875 28.6705C66.7045 27.6155 65.9885 26.7365 65.1025 26.7065" fill="white"/>
<path fill-rule="evenodd" clip-rule="evenodd" d="M60.7532 26.5524C59.8752 26.5274 59.1662 27.2764 59.1582 28.2214C59.1522 29.1674 59.8492 29.9864 60.7222 30.0554C61.5952 30.1254 62.3172 29.3824 62.3282 28.3914C62.3392 27.3994 61.6302 26.5774 60.7532 26.5524" fill="white"/>
<path fill-rule="evenodd" clip-rule="evenodd" d="M56.4404 26.4335C55.5684 26.4145 54.8614 27.1375 54.8594 28.0435C54.8564 28.9505 55.5574 29.7195 56.4254 29.7715C57.2944 29.8225 58.0054 29.1085 58.0114 28.1675C58.0164 27.2275 57.3124 26.4505 56.4404 26.4335" fill="white"/>
<mask id="mask3_0_581" style="mask-type:alpha" maskUnits="userSpaceOnUse" x="100" y="36" width="5" height="8">
<path fill-rule="evenodd" clip-rule="evenodd" d="M100.582 36.8608H104.579V43.4153H100.582V36.8608Z" fill="white"/>
</mask>
<g mask="url(#mask3_0_581)">
<path fill-rule="evenodd" clip-rule="evenodd" d="M103.004 36.8741C101.914 36.7151 100.89 38.0051 100.639 39.7591C100.39 41.5131 100.977 43.1371 102.025 43.3851C102.857 43.5801 103.751 42.8141 104.234 41.5621C104.359 41.2371 104.455 40.8841 104.515 40.5061C104.563 40.2011 104.583 39.9031 104.579 39.6141C104.579 39.6121 104.579 39.6121 104.58 39.6101C104.56 38.1581 103.909 37.0101 103.004 36.8741" fill="white"/>
</g>
<path fill-rule="evenodd" clip-rule="evenodd" d="M82.9981 33.7234C82.0451 33.5834 81.2191 34.5514 81.1161 35.8924C81.0141 37.2324 81.6541 38.5084 82.5821 38.7354C83.5071 38.9624 84.3951 37.9824 84.5231 36.5554C84.6511 35.1274 83.9501 33.8634 82.9981 33.7234" fill="white"/>
<path fill-rule="evenodd" clip-rule="evenodd" d="M78.3656 33.0255C77.4366 32.8965 76.6426 33.7945 76.5666 35.0405C76.4906 36.2845 77.1426 37.4715 78.0486 37.6835C78.9546 37.8955 79.7946 36.9865 79.8926 35.6585C79.9926 34.3315 79.2936 33.1555 78.3656 33.0255" fill="white"/>
<path fill-rule="evenodd" clip-rule="evenodd" d="M73.8396 32.3827C72.9306 32.2647 72.1656 33.1027 72.1106 34.2607C72.0556 35.4167 72.7186 36.5147 73.6076 36.7097C74.4966 36.9037 75.2966 36.0587 75.3706 34.8247C75.4436 33.5917 74.7466 32.4997 73.8396 32.3827" fill="white"/>
<path fill-rule="evenodd" clip-rule="evenodd" d="M69.401 31.8048C68.51 31.6998 67.767 32.4878 67.73 33.5648C67.693 34.6418 68.363 35.6558 69.24 35.8278C70.117 36.0018 70.884 35.2128 70.937 34.0658C70.99 32.9198 70.293 31.9088 69.401 31.8048" fill="white"/>
<path fill-rule="evenodd" clip-rule="evenodd" d="M65.0329 31.3018C64.1519 31.2118 63.4279 31.9588 63.4049 32.9668C63.3809 33.9748 64.0599 34.9078 64.9279 35.0578C65.7959 35.2068 66.5379 34.4638 66.5739 33.3948C66.6089 32.3278 65.9129 31.3908 65.0329 31.3018" fill="white"/>
<path fill-rule="evenodd" clip-rule="evenodd" d="M60.7114 30.8834C59.8384 30.8114 59.1264 31.5274 59.1134 32.4794C59.1014 33.4314 59.7874 34.2934 60.6504 34.4134C61.5134 34.5344 62.2354 33.8264 62.2574 32.8254C62.2794 31.8254 61.5834 30.9554 60.7114 30.8834" fill="white"/>
<path fill-rule="evenodd" clip-rule="evenodd" d="M56.4189 30.5595C55.5499 30.5065 54.8429 31.2065 54.8379 32.1155C54.8329 33.0245 55.5269 33.8235 56.3889 33.9125C57.2509 34.0015 57.9619 33.3155 57.9729 32.3695C57.9839 31.4245 57.2879 30.6115 56.4189 30.5595" fill="white"/>
<path fill-rule="evenodd" clip-rule="evenodd" d="M82.4596 39.9257C81.5326 39.6947 80.6866 40.6127 80.5326 41.9827C80.3796 43.3527 80.9486 44.7277 81.8356 45.0437C82.7206 45.3597 83.6256 44.4247 83.8176 42.9717C84.0096 41.5157 83.3846 40.1567 82.4596 39.9257" fill="white"/>
<path fill-rule="evenodd" clip-rule="evenodd" d="M77.9555 38.7908C77.0495 38.5748 76.2435 39.4268 76.1275 40.7008C76.0125 41.9728 76.6085 43.2578 77.4805 43.5568C78.3515 43.8568 79.2025 42.9898 79.3495 41.6328C79.4985 40.2748 78.8605 39.0068 77.9555 38.7908" fill="white"/>
<path fill-rule="evenodd" clip-rule="evenodd" d="M73.1914 42.1628C74.0504 42.4398 74.8564 41.6358 74.9664 40.3748C75.0774 39.1128 74.4264 37.9348 73.5394 37.7368C72.6494 37.5388 71.8784 38.3348 71.7944 39.5168C71.7124 40.6978 72.3304 41.8858 73.1914 42.1628" fill="white"/>
<path fill-rule="evenodd" clip-rule="evenodd" d="M69.1921 36.7835C68.3161 36.6075 67.5711 37.3555 67.5151 38.4525C67.4591 39.5495 68.0971 40.6415 68.9501 40.8905C69.8031 41.1405 70.5711 40.3915 70.6501 39.2205C70.7291 38.0495 70.0681 36.9595 69.1921 36.7835" fill="white"/>
<path fill-rule="evenodd" clip-rule="evenodd" d="M64.8959 35.9477C64.0279 35.7957 63.3039 36.5077 63.2689 37.5307C63.2339 38.5527 63.8899 39.5517 64.7389 39.7677C65.5879 39.9837 66.3279 39.2777 66.3809 38.1917C66.4339 37.1037 65.7639 36.0987 64.8959 35.9477" fill="white"/>
<path fill-rule="evenodd" clip-rule="evenodd" d="M60.6325 35.2486C59.7695 35.1256 59.0585 35.8116 59.0395 36.7736C59.0205 37.7346 59.6915 38.6456 60.5415 38.8216C61.3905 38.9986 62.1085 38.3256 62.1405 37.3116C62.1735 36.2966 61.4955 35.3706 60.6325 35.2486" fill="white"/>
<path fill-rule="evenodd" clip-rule="evenodd" d="M81.6627 46.2664C80.7777 45.9474 79.9197 46.8204 79.7147 48.2334C79.5097 49.6444 79.9967 51.1304 80.8307 51.5324C81.6617 51.9344 82.5737 51.0354 82.8297 49.5394C83.0857 48.0434 82.5467 46.5854 81.6627 46.2664" fill="white"/>
<path fill-rule="evenodd" clip-rule="evenodd" d="M77.3486 44.6962C76.4786 44.3922 75.6666 45.2022 75.5126 46.5172C75.3596 47.8322 75.8886 49.2232 76.7156 49.6112C77.5426 49.9992 78.3916 49.1672 78.5886 47.7672C78.7866 46.3672 78.2186 44.9992 77.3486 44.6962" fill="white"/>
<path fill-rule="evenodd" clip-rule="evenodd" d="M73.0965 43.2209C72.2375 42.9399 71.4635 43.6929 71.3535 44.9119C71.2435 46.1299 71.8105 47.4189 72.6335 47.7839C73.4535 48.1479 74.2555 47.3799 74.4025 46.0779C74.5505 44.7759 73.9555 43.5009 73.0965 43.2209" fill="white"/>
<path fill-rule="evenodd" clip-rule="evenodd" d="M68.8843 41.8707C68.0333 41.6177 67.2903 42.3247 67.2153 43.4527C67.1403 44.5807 67.7403 45.7617 68.5613 46.0937C69.3833 46.4257 70.1443 45.7137 70.2493 44.5077C70.3553 43.3007 69.7363 42.1237 68.8843 41.8707" fill="white"/>
<path fill-rule="evenodd" clip-rule="evenodd" d="M64.6965 40.6771C63.8475 40.4581 63.1275 41.1311 63.0805 42.1761C63.0345 43.2211 63.6625 44.2951 64.4875 44.5851C65.3115 44.8761 66.0425 44.2091 66.1135 43.0931C66.1845 41.9771 65.5445 40.8951 64.6965 40.6771" fill="white"/>
<path fill-rule="evenodd" clip-rule="evenodd" d="M76.5492 50.7907C75.7262 50.3997 74.9172 51.1747 74.7252 52.5417C74.5342 53.9087 74.9882 55.4227 75.7582 55.9007C76.1212 56.1237 76.4962 56.0677 76.8212 55.7887C76.8212 55.7877 76.8212 55.7877 76.8212 55.7867C77.0002 55.6337 77.1652 55.4107 77.2992 55.1337C77.2992 55.1327 77.3002 55.1327 77.3002 55.1317C77.4402 54.8467 77.5482 54.5017 77.6132 54.1157C77.8602 52.6617 77.3732 51.1827 76.5492 50.7907" fill="white"/>
<path fill-rule="evenodd" clip-rule="evenodd" d="M72.5093 48.8781C71.6893 48.5101 70.9223 49.2271 70.7843 50.4921C70.6463 51.7561 71.1553 53.1631 71.9293 53.6201C72.7023 54.0781 73.4913 53.3361 73.6763 51.9831C73.8603 50.6281 73.3293 49.2461 72.5093 48.8781" fill="white"/>
<path fill-rule="evenodd" clip-rule="evenodd" d="M68.4755 47.1053C67.6555 46.7703 66.9215 47.4403 66.8285 48.6053C66.7355 49.7693 67.2905 51.0573 68.0715 51.4793C68.8535 51.9033 69.6015 51.2233 69.7335 49.9723C69.8645 48.7193 69.2955 47.4413 68.4755 47.1053" fill="white"/>
<path fill-rule="evenodd" clip-rule="evenodd" d="M64.4309 45.5191C63.6079 45.2251 62.8969 45.8611 62.8379 46.9341C62.7799 48.0061 63.3759 49.1711 64.1689 49.5441C64.9619 49.9181 65.6799 49.2891 65.7679 48.1361C65.8559 46.9841 65.2539 45.8121 64.4309 45.5191" fill="white"/>
<path fill-rule="evenodd" clip-rule="evenodd" d="M86.054 47.9015C85.15 47.5725 84.237 48.5135 83.971 50.0215C83.707 51.5285 84.146 53.0975 84.991 53.5045C85.833 53.9125 86.815 52.9435 87.139 51.3585C87.464 49.7715 86.956 48.2315 86.054 47.9015" fill="white"/>
<path fill-rule="evenodd" clip-rule="evenodd" d="M87.0708 41.1236C86.1208 40.8826 85.2248 41.8706 85.0248 43.3386C84.8278 44.8056 85.3678 46.2716 86.2728 46.5976C87.1768 46.9236 88.1468 45.9196 88.3888 44.3676C88.6328 42.8136 88.0198 41.3656 87.0708 41.1236" fill="white"/>
<path fill-rule="evenodd" clip-rule="evenodd" d="M87.758 34.4671C86.776 34.3191 85.911 35.3621 85.777 36.8031C85.646 38.2431 86.275 39.6101 87.226 39.8481C88.177 40.0841 89.119 39.0321 89.281 37.5011C89.444 35.9701 88.738 34.6151 87.758 34.4671" fill="white"/>
<path fill-rule="evenodd" clip-rule="evenodd" d="M87.8518 33.2074C88.8328 33.3504 89.7358 32.2364 89.8168 30.7204C89.8978 29.2024 89.1128 27.9354 88.1178 27.8844C87.1208 27.8344 86.2968 28.9434 86.2288 30.3674C86.1638 31.7914 86.8698 33.0644 87.8518 33.2074" fill="white"/>
<path fill-rule="evenodd" clip-rule="evenodd" d="M91.8074 42.366C90.8304 42.118 89.8764 43.179 89.6254 44.746C89.3764 46.311 89.8854 47.859 90.8124 48.189C91.7374 48.52 92.7794 47.445 93.0794 45.798C93.3804 44.149 92.7844 42.614 91.8074 42.366" fill="white"/>
<path fill-rule="evenodd" clip-rule="evenodd" d="M92.6655 35.2464C91.6535 35.0934 90.7395 36.2144 90.5715 37.7594C90.4065 39.3044 91.0235 40.7594 92.0015 41.0044C92.9805 41.2484 93.9855 40.1184 94.1855 38.4834C94.3865 36.8474 93.6775 35.3994 92.6655 35.2464" fill="white"/>
<path fill-rule="evenodd" clip-rule="evenodd" d="M96.6912 43.6355C95.6812 43.3835 94.6632 44.5225 94.3532 46.1825C94.0452 47.8415 94.5192 49.4615 95.4722 49.7915C96.4232 50.1205 97.5472 48.9765 97.9122 47.2415C98.2782 45.5025 97.6982 43.8875 96.6912 43.6355" fill="white"/>
<path fill-rule="evenodd" clip-rule="evenodd" d="M97.7423 36.052C96.6923 35.894 95.7273 37.1 95.5203 38.749C95.3153 40.399 95.9183 41.94 96.9293 42.189C97.9383 42.437 99.0143 41.229 99.2573 39.489C99.5023 37.748 98.7893 36.21 97.7423 36.052" fill="white"/>
<path fill-rule="evenodd" clip-rule="evenodd" d="M27.1191 41.0654V55.7624H29.8151V51.8724H32.7951L33.4981 49.8394H29.8151V43.3194H35.7541L36.5341 41.0654H27.1191Z" fill="white"/>
<path fill-rule="evenodd" clip-rule="evenodd" d="M8.53 48.501C8.089 48.162 7.666 47.9 7.26 47.708C7.251 47.703 7.239 47.699 7.229 47.695C6.831 47.508 6.379 47.335 5.871 47.178C5.345 47.013 4.851 46.857 4.387 46.701C3.924 46.546 3.572 46.349 3.336 46.113C2.984 45.762 2.806 45.347 2.806 44.879C2.806 44.229 3.02 43.748 3.438 43.441C3.67 43.271 3.977 43.147 4.352 43.071C4.352 43.071 4.401 43.062 4.494 43.044C4.516 43.04 4.543 43.035 4.57 43.035C4.632 43.026 4.704 43.017 4.784 43.009C4.842 43 4.895 42.995 4.957 42.995C4.989 42.995 5.02 42.991 5.051 42.991C5.158 42.982 5.269 42.977 5.381 42.977C5.755 42.977 6.067 43.004 6.312 43.058C6.347 43.062 6.387 43.071 6.427 43.08C7.103 43.202 7.842 43.484 8.479 44.043L9.283 41.695V41.694C7.987 41.093 6.583 40.79 5.073 40.79C3.563 40.79 2.338 41.178 1.403 41.948C0.467 42.723 0 43.784 0 45.133C0 46.479 0.436 47.476 1.305 48.127C1.746 48.452 2.187 48.706 2.619 48.889C3.055 49.071 3.599 49.254 4.254 49.432C4.913 49.606 5.443 49.797 5.857 50.007C6.041 50.09 6.201 50.184 6.341 50.288C6.798 50.626 7.029 51.076 7.029 51.641C7.029 52.818 6.407 53.5 5.175 53.697C5.096 53.709 5.023 53.727 4.94 53.735C4.94 53.735 4.922 53.735 4.891 53.74C4.541 53.78 2.348 53.955 0.898 52.705L0.066 55.134C1.363 55.735 2.828 56.038 4.454 56.038C6.08 56.038 7.394 55.642 8.387 54.844C9.381 54.051 9.88 52.96 9.88 51.575C9.88 50.189 9.43 49.165 8.53 48.501" fill="white"/>
<path fill-rule="evenodd" clip-rule="evenodd" d="M19.095 41.0654H16.028L11.776 53.4894L10.998 55.7624H13.547L14.255 53.8174L14.918 51.8724L15.449 49.8394L17.504 43.5404H17.57L19.559 49.8394H17.23L16.7 51.8724H20.09L20.596 53.4414L21.346 55.7624H24.392L23.604 53.8174L19.095 41.0654Z" fill="white"/>
<path fill-rule="evenodd" clip-rule="evenodd" d="M48.8951 53.8179L44.3861 41.0659H41.3201L37.0671 53.4889L36.2891 55.7629H38.8381L39.5461 53.8179L40.2091 51.8729L40.7401 49.8399L42.7951 43.5409H42.8611L44.8501 49.8399H42.5221L41.9911 51.8729H45.3811L45.8881 53.4419L46.6371 55.7629H49.6831L48.8951 53.8179Z" fill="white"/>
<path fill-rule="evenodd" clip-rule="evenodd" d="M24.7805 25.0816C25.1975 25.0816 25.5595 24.9506 25.8685 24.6886C26.1775 24.4266 26.3325 24.0396 26.3325 23.5286C26.3325 23.0736 26.1835 22.7046 25.8875 22.4216C25.5915 22.1386 25.2215 21.9976 24.7805 21.9976C24.3385 21.9976 23.9695 22.1386 23.6735 22.4216C23.3765 22.7046 23.2285 23.0736 23.2285 23.5286C23.2285 24.0396 23.3825 24.4266 23.6925 24.6886C24.0015 24.9506 24.3645 25.0816 24.7805 25.0816" fill="white"/>
<path fill-rule="evenodd" clip-rule="evenodd" d="M47.0362 34.3868H38.8782V29.9588H44.9152C45.2562 29.9588 45.5702 30.0288 45.8532 30.1678C46.1372 30.3078 46.3612 30.4828 46.5242 30.6958C46.7032 30.9128 46.8312 31.1608 46.9122 31.4438C46.9972 31.7268 47.0362 32.0608 47.0362 32.4368V34.3868ZM49.4402 30.3858C49.2772 29.7228 48.9902 29.1758 48.5872 28.7488C48.1102 28.2448 47.5482 27.8808 46.9042 27.6598C46.2612 27.4388 45.5082 27.3298 44.6512 27.3298H38.8782V26.3838H36.2302V34.3858H34.6872V34.3868H30.4492V36.7258H36.2302H36.4962H49.6842V32.5528C49.6842 31.7698 49.6032 31.0488 49.4402 30.3858V30.3858Z" fill="white"/>
<path fill-rule="evenodd" clip-rule="evenodd" d="M26.067 34.3866H23.326C22.884 34.0846 22.531 33.7046 22.275 33.2506C22.015 32.7966 21.887 32.2816 21.887 31.6996C21.887 31.2736 21.973 30.8896 22.151 30.5556C22.329 30.2226 22.558 29.9396 22.841 29.7146C23.124 29.4856 23.454 29.3146 23.826 29.2026C24.198 29.0906 24.574 29.0316 24.95 29.0316H26.067V34.3866ZM23.004 26.7406C22.221 26.9806 21.55 27.3296 20.996 27.7916C20.441 28.2526 20.011 28.8106 19.7 29.4666C19.39 30.1216 19.235 30.8656 19.235 31.6996C19.235 32.2426 19.32 32.7346 19.483 33.1766C19.646 33.6186 19.867 34.0226 20.146 34.3866H2.648V21.9976L0 24.3406V36.7256H28.719V26.3836H25.594C24.648 26.3836 23.783 26.5036 23.004 26.7406V26.7406Z" fill="white"/>
</svg>
